<svg preserveAspectRatio="none" width="100%" height="100%" overflow="visible" style="display: block;" viewBox="0 0 30 28.1128" fill="none" xmlns="http://www.w3.org/2000/svg">
<g id="Group">
<path id="Vector" d="M14.6298 0.792183C13.6073 0.0312708 12.322 -0.194473 11.1014 0.171646L2.84452 2.64864C1.14352 3.15926 0 4.69495 0 6.47157V24.1192C0 25.3935 0.58624 26.5605 1.6086 27.3202C2.63114 28.0812 3.91785 28.3068 5.1371 27.9408L11.3009 26.0912C11.1081 25.4555 11.0105 24.7921 11.0105 24.1192V16.1046C11.0105 14.4216 11.6242 12.8142 12.7416 11.5812C13.5618 10.6729 14.6256 10.0028 15.8146 9.645L16.2384 9.52393V3.99448C16.2384 2.72014 15.6522 1.55319 14.6297 0.792183H14.6298Z" fill="var(--fill-0, #099D51)"/>
<path id="Vector_2" d="M29.9999 13.6274V21.642C29.9999 23.4174 28.8577 24.9545 27.1554 25.4637L18.8986 27.9408C18.516 28.0563 18.1266 28.1128 17.7413 28.1128C16.8976 28.1128 16.0719 27.8431 15.3701 27.3201C15.0494 27.0807 14.7715 26.8041 14.543 26.4945C14.2651 26.1229 14.0572 25.7087 13.9265 25.2642C13.9251 25.2642 13.9238 25.2642 13.9224 25.2655L13.9251 25.2628C13.8192 24.898 13.7614 24.5141 13.7614 24.1191V16.1045C13.7614 15.2816 14.0063 14.5096 14.4385 13.8683C14.8706 13.2269 15.4898 12.7151 16.2385 12.4109C16.3582 12.3628 16.4807 12.3186 16.606 12.2816L17.6161 11.9788L24.8629 9.80452C26.0835 9.4384 27.3689 9.66415 28.3913 10.4252C29.4139 11.1862 30 12.3531 30 13.6274H29.9999Z" fill="var(--fill-0, #099D51)"/>
</g>
</svg>
