<svg width="14" height="14" viewBox="0 0 14 14" fill="none" xmlns="http://www.w3.org/2000/svg">
<path d="M7.00002 1.1665C3.77419 1.1665 1.16669 3.774 1.16669 6.99984C1.16669 10.2257 3.77419 12.8332 7.00002 12.8332C10.2259 12.8332 12.8334 10.2257 12.8334 6.99984C12.8334 3.774 10.2259 1.1665 7.00002 1.1665ZM9.50835 9.50817C9.45439 9.56225 9.39029 9.60515 9.31972 9.63442C9.24915 9.6637 9.1735 9.67876 9.0971 9.67876C9.02071 9.67876 8.94506 9.6637 8.87449 9.63442C8.80392 9.60515 8.73982 9.56225 8.68585 9.50817L7.00002 7.82234L5.31419 9.50817C5.20512 9.61724 5.05719 9.67852 4.90294 9.67852C4.74869 9.67852 4.60076 9.61724 4.49169 9.50817C4.38262 9.3991 4.32134 9.25117 4.32134 9.09692C4.32134 9.02055 4.33639 8.94492 4.36561 8.87435C4.39484 8.80379 4.43768 8.73968 4.49169 8.68567L6.17752 6.99984L4.49169 5.314C4.38262 5.20493 4.32134 5.057 4.32134 4.90275C4.32134 4.74851 4.38262 4.60057 4.49169 4.4915C4.60076 4.38243 4.74869 4.32116 4.90294 4.32116C5.05719 4.32116 5.20512 4.38243 5.31419 4.4915L7.00002 6.17734L8.68585 4.4915C8.73986 4.4375 8.80398 4.39466 8.87454 4.36543C8.9451 4.3362 9.02073 4.32116 9.0971 4.32116C9.17348 4.32116 9.24911 4.3362 9.31967 4.36543C9.39023 4.39466 9.45435 4.4375 9.50835 4.4915C9.56236 4.54551 9.6052 4.60962 9.63443 4.68019C9.66366 4.75075 9.6787 4.82638 9.6787 4.90275C9.6787 4.97913 9.66366 5.05476 9.63443 5.12532C9.6052 5.19588 9.56236 5.26 9.50835 5.314L7.82252 6.99984L9.50835 8.68567C9.73002 8.90734 9.73002 9.28067 9.50835 9.50817Z" fill="#B9B9B9"/>
</svg>
